<mxfile host="app.diagrams.net" modified="2021-02-15T23:41:28.201Z" agent="5.0 (Windows NT 10.0; Win64; x64) AppleWebKit/537.36 (KHTML, like Gecko) Chrome/88.0.4324.150 Safari/537.36 Edg/88.0.705.68" etag="n4Ly-cTAINjupBIzYLpg" version="14.3.2" type="github">
  <diagram id="C5RBs43oDa-KdzZeNtuy" name="Page-1">
    <mxGraphModel dx="2187" dy="2003" grid="1" gridSize="10" guides="1" tooltips="1" connect="1" arrows="1" fold="1" page="1" pageScale="1" pageWidth="827" pageHeight="1169" math="0" shadow="0">
      <root>
        <mxCell id="WIyWlLk6GJQsqaUBKTNV-0" />
        <mxCell id="WIyWlLk6GJQsqaUBKTNV-1" parent="WIyWlLk6GJQsqaUBKTNV-0" />
        <mxCell id="Vl72aRN3SbKEqZ6TAuXg-37" value="" style="rounded=0;whiteSpace=wrap;html=1;" vertex="1" parent="WIyWlLk6GJQsqaUBKTNV-1">
          <mxGeometry x="-170" y="-40" width="680" height="1130" as="geometry" />
        </mxCell>
        <mxCell id="WIyWlLk6GJQsqaUBKTNV-3" value="Ejecución Job&amp;nbsp;DBCargaDiaria510&lt;br&gt;(Stored Procedure&amp;nbsp;PRINCIPAL_CARGA_510)" style="rounded=0;whiteSpace=wrap;html=1;fontSize=12;glass=0;strokeWidth=1;shadow=0;fillColor=#ffe6cc;strokeColor=#d79b00;" parent="WIyWlLk6GJQsqaUBKTNV-1" vertex="1">
          <mxGeometry x="110" y="80" width="210" height="70" as="geometry" />
        </mxCell>
        <mxCell id="Vl72aRN3SbKEqZ6TAuXg-1" value="Inicio" style="rounded=1;whiteSpace=wrap;html=1;fontSize=12;glass=0;strokeWidth=1;shadow=0;" vertex="1" parent="WIyWlLk6GJQsqaUBKTNV-1">
          <mxGeometry x="180" y="-10" width="70" height="30" as="geometry" />
        </mxCell>
        <mxCell id="Vl72aRN3SbKEqZ6TAuXg-2" value="" style="rounded=0;html=1;jettySize=auto;orthogonalLoop=1;fontSize=11;endArrow=block;endFill=0;endSize=8;strokeWidth=1;shadow=0;labelBackgroundColor=none;edgeStyle=orthogonalEdgeStyle;" edge="1" parent="WIyWlLk6GJQsqaUBKTNV-1" source="Vl72aRN3SbKEqZ6TAuXg-1" target="WIyWlLk6GJQsqaUBKTNV-3">
          <mxGeometry relative="1" as="geometry">
            <mxPoint x="219.5" y="30" as="sourcePoint" />
            <mxPoint x="219.5" y="80" as="targetPoint" />
          </mxGeometry>
        </mxCell>
        <mxCell id="Vl72aRN3SbKEqZ6TAuXg-5" value="" style="rounded=0;html=1;jettySize=auto;orthogonalLoop=1;fontSize=11;endArrow=block;endFill=0;endSize=8;strokeWidth=1;shadow=0;labelBackgroundColor=none;edgeStyle=orthogonalEdgeStyle;" edge="1" parent="WIyWlLk6GJQsqaUBKTNV-1" source="WIyWlLk6GJQsqaUBKTNV-3" target="Vl72aRN3SbKEqZ6TAuXg-11">
          <mxGeometry relative="1" as="geometry">
            <mxPoint x="510" y="70" as="sourcePoint" />
            <mxPoint x="215" y="210" as="targetPoint" />
          </mxGeometry>
        </mxCell>
        <mxCell id="Vl72aRN3SbKEqZ6TAuXg-6" value="Fin" style="rounded=1;whiteSpace=wrap;html=1;fontSize=12;glass=0;strokeWidth=1;shadow=0;" vertex="1" parent="WIyWlLk6GJQsqaUBKTNV-1">
          <mxGeometry x="180" y="1030" width="70" height="30" as="geometry" />
        </mxCell>
        <mxCell id="Vl72aRN3SbKEqZ6TAuXg-7" value="Control - M" style="rounded=1;whiteSpace=wrap;html=1;fontSize=12;glass=0;strokeWidth=1;shadow=0;fillColor=#ffe6cc;strokeColor=#d79b00;" vertex="1" parent="WIyWlLk6GJQsqaUBKTNV-1">
          <mxGeometry x="410" y="980" width="70" height="20" as="geometry" />
        </mxCell>
        <mxCell id="Vl72aRN3SbKEqZ6TAuXg-9" value="BD Aliados" style="rounded=1;whiteSpace=wrap;html=1;fontSize=12;glass=0;strokeWidth=1;shadow=0;fillColor=#d5e8d4;strokeColor=#82b366;" vertex="1" parent="WIyWlLk6GJQsqaUBKTNV-1">
          <mxGeometry x="410" y="1020" width="70" height="20" as="geometry" />
        </mxCell>
        <mxCell id="Vl72aRN3SbKEqZ6TAuXg-15" style="edgeStyle=orthogonalEdgeStyle;rounded=0;orthogonalLoop=1;jettySize=auto;html=1;" edge="1" parent="WIyWlLk6GJQsqaUBKTNV-1" source="Vl72aRN3SbKEqZ6TAuXg-11" target="Vl72aRN3SbKEqZ6TAuXg-14">
          <mxGeometry relative="1" as="geometry" />
        </mxCell>
        <mxCell id="Vl72aRN3SbKEqZ6TAuXg-16" value="SI" style="edgeLabel;html=1;align=center;verticalAlign=middle;resizable=0;points=[];" vertex="1" connectable="0" parent="Vl72aRN3SbKEqZ6TAuXg-15">
          <mxGeometry x="-0.2908" y="2" relative="1" as="geometry">
            <mxPoint as="offset" />
          </mxGeometry>
        </mxCell>
        <mxCell id="Vl72aRN3SbKEqZ6TAuXg-11" value="¿Carga día anterior ejecutada previamente?" style="rhombus;whiteSpace=wrap;html=1;shadow=0;fontFamily=Helvetica;fontSize=12;align=center;strokeWidth=1;spacing=6;spacingTop=-4;fillColor=#d5e8d4;strokeColor=#82b366;" vertex="1" parent="WIyWlLk6GJQsqaUBKTNV-1">
          <mxGeometry x="133.75" y="210" width="162.5" height="120" as="geometry" />
        </mxCell>
        <mxCell id="Vl72aRN3SbKEqZ6TAuXg-17" style="edgeStyle=orthogonalEdgeStyle;rounded=0;orthogonalLoop=1;jettySize=auto;html=1;" edge="1" parent="WIyWlLk6GJQsqaUBKTNV-1" source="Vl72aRN3SbKEqZ6TAuXg-14" target="Vl72aRN3SbKEqZ6TAuXg-6">
          <mxGeometry relative="1" as="geometry">
            <Array as="points">
              <mxPoint x="-35" y="1045" />
            </Array>
          </mxGeometry>
        </mxCell>
        <mxCell id="Vl72aRN3SbKEqZ6TAuXg-14" value="Envía notificación de carga ejecutada previamente" style="rounded=0;whiteSpace=wrap;html=1;fontSize=12;glass=0;strokeWidth=1;shadow=0;fillColor=#ffe6cc;strokeColor=#d79b00;" vertex="1" parent="WIyWlLk6GJQsqaUBKTNV-1">
          <mxGeometry x="-140" y="470" width="210" height="70" as="geometry" />
        </mxCell>
        <mxCell id="Vl72aRN3SbKEqZ6TAuXg-21" style="edgeStyle=orthogonalEdgeStyle;rounded=0;orthogonalLoop=1;jettySize=auto;html=1;" edge="1" parent="WIyWlLk6GJQsqaUBKTNV-1" source="Vl72aRN3SbKEqZ6TAuXg-18" target="Vl72aRN3SbKEqZ6TAuXg-20">
          <mxGeometry relative="1" as="geometry" />
        </mxCell>
        <mxCell id="Vl72aRN3SbKEqZ6TAuXg-23" value="SI" style="edgeLabel;html=1;align=center;verticalAlign=middle;resizable=0;points=[];" vertex="1" connectable="0" parent="Vl72aRN3SbKEqZ6TAuXg-21">
          <mxGeometry x="0.2143" y="-3" relative="1" as="geometry">
            <mxPoint as="offset" />
          </mxGeometry>
        </mxCell>
        <mxCell id="Vl72aRN3SbKEqZ6TAuXg-18" value="¿Carga 510 completa &lt;br&gt;en BD más control para &lt;br&gt;el día anterior?" style="rhombus;whiteSpace=wrap;html=1;shadow=0;fontFamily=Helvetica;fontSize=12;align=center;strokeWidth=1;spacing=6;spacingTop=-4;fillColor=#d5e8d4;strokeColor=#82b366;" vertex="1" parent="WIyWlLk6GJQsqaUBKTNV-1">
          <mxGeometry x="133.75" y="380" width="162.5" height="120" as="geometry" />
        </mxCell>
        <mxCell id="Vl72aRN3SbKEqZ6TAuXg-19" value="NO" style="rounded=0;html=1;jettySize=auto;orthogonalLoop=1;fontSize=11;endArrow=block;endFill=0;endSize=8;strokeWidth=1;shadow=0;labelBackgroundColor=none;edgeStyle=orthogonalEdgeStyle;" edge="1" parent="WIyWlLk6GJQsqaUBKTNV-1" source="Vl72aRN3SbKEqZ6TAuXg-11" target="Vl72aRN3SbKEqZ6TAuXg-18">
          <mxGeometry relative="1" as="geometry">
            <mxPoint x="214.5" y="330" as="sourcePoint" />
            <mxPoint x="214.5" y="380" as="targetPoint" />
          </mxGeometry>
        </mxCell>
        <mxCell id="Vl72aRN3SbKEqZ6TAuXg-24" style="edgeStyle=orthogonalEdgeStyle;rounded=0;orthogonalLoop=1;jettySize=auto;html=1;" edge="1" parent="WIyWlLk6GJQsqaUBKTNV-1" source="Vl72aRN3SbKEqZ6TAuXg-20" target="WIyWlLk6GJQsqaUBKTNV-3">
          <mxGeometry relative="1" as="geometry">
            <Array as="points">
              <mxPoint x="444" y="115" />
            </Array>
          </mxGeometry>
        </mxCell>
        <mxCell id="Vl72aRN3SbKEqZ6TAuXg-20" value="Sleep &lt;br&gt;1 hora" style="shape=or;whiteSpace=wrap;html=1;rounded=1;fillColor=#ffe6cc;strokeColor=#d79b00;" vertex="1" parent="WIyWlLk6GJQsqaUBKTNV-1">
          <mxGeometry x="420" y="80" width="60" height="80" as="geometry" />
        </mxCell>
        <mxCell id="Vl72aRN3SbKEqZ6TAuXg-25" value="SI" style="rounded=0;html=1;jettySize=auto;orthogonalLoop=1;fontSize=11;endArrow=block;endFill=0;endSize=8;strokeWidth=1;shadow=0;labelBackgroundColor=none;edgeStyle=orthogonalEdgeStyle;" edge="1" parent="WIyWlLk6GJQsqaUBKTNV-1" target="Vl72aRN3SbKEqZ6TAuXg-26">
          <mxGeometry relative="1" as="geometry">
            <mxPoint x="214.5" y="500" as="sourcePoint" />
            <mxPoint x="214.5" y="550" as="targetPoint" />
          </mxGeometry>
        </mxCell>
        <mxCell id="Vl72aRN3SbKEqZ6TAuXg-26" value="Carga tabla temporal archivo 510" style="rounded=0;whiteSpace=wrap;html=1;fontSize=12;glass=0;strokeWidth=1;shadow=0;fillColor=#d5e8d4;strokeColor=#82b366;" vertex="1" parent="WIyWlLk6GJQsqaUBKTNV-1">
          <mxGeometry x="110" y="550" width="210" height="70" as="geometry" />
        </mxCell>
        <mxCell id="Vl72aRN3SbKEqZ6TAuXg-27" value="" style="rounded=0;html=1;jettySize=auto;orthogonalLoop=1;fontSize=11;endArrow=block;endFill=0;endSize=8;strokeWidth=1;shadow=0;labelBackgroundColor=none;edgeStyle=orthogonalEdgeStyle;" edge="1" parent="WIyWlLk6GJQsqaUBKTNV-1" target="Vl72aRN3SbKEqZ6TAuXg-28" source="Vl72aRN3SbKEqZ6TAuXg-26">
          <mxGeometry relative="1" as="geometry">
            <mxPoint x="214.5" y="620" as="sourcePoint" />
            <mxPoint x="214.5" y="670" as="targetPoint" />
          </mxGeometry>
        </mxCell>
        <mxCell id="Vl72aRN3SbKEqZ6TAuXg-28" value="Obtiene información complementaria para TRX (Aliados, clientes, género y edad clientes, etc.)" style="rounded=0;whiteSpace=wrap;html=1;fontSize=12;glass=0;strokeWidth=1;shadow=0;fillColor=#d5e8d4;strokeColor=#82b366;" vertex="1" parent="WIyWlLk6GJQsqaUBKTNV-1">
          <mxGeometry x="110" y="670" width="210" height="70" as="geometry" />
        </mxCell>
        <mxCell id="Vl72aRN3SbKEqZ6TAuXg-29" value="" style="rounded=0;html=1;jettySize=auto;orthogonalLoop=1;fontSize=11;endArrow=block;endFill=0;endSize=8;strokeWidth=1;shadow=0;labelBackgroundColor=none;edgeStyle=orthogonalEdgeStyle;" edge="1" parent="WIyWlLk6GJQsqaUBKTNV-1" source="Vl72aRN3SbKEqZ6TAuXg-28" target="Vl72aRN3SbKEqZ6TAuXg-30">
          <mxGeometry relative="1" as="geometry">
            <mxPoint x="214.5" y="740" as="sourcePoint" />
            <mxPoint x="214.5" y="790" as="targetPoint" />
          </mxGeometry>
        </mxCell>
        <mxCell id="Vl72aRN3SbKEqZ6TAuXg-30" value="Agrupa transacciones e inserta en tabla sumarizada" style="rounded=0;whiteSpace=wrap;html=1;fontSize=12;glass=0;strokeWidth=1;shadow=0;fillColor=#d5e8d4;strokeColor=#82b366;" vertex="1" parent="WIyWlLk6GJQsqaUBKTNV-1">
          <mxGeometry x="110" y="790" width="210" height="70" as="geometry" />
        </mxCell>
        <mxCell id="Vl72aRN3SbKEqZ6TAuXg-31" value="Envía notificación de carga diaria correcta" style="rounded=0;whiteSpace=wrap;html=1;fontSize=12;glass=0;strokeWidth=1;shadow=0;fillColor=#ffe6cc;strokeColor=#d79b00;" vertex="1" parent="WIyWlLk6GJQsqaUBKTNV-1">
          <mxGeometry x="110" y="910" width="210" height="70" as="geometry" />
        </mxCell>
        <mxCell id="Vl72aRN3SbKEqZ6TAuXg-32" value="" style="rounded=0;html=1;jettySize=auto;orthogonalLoop=1;fontSize=11;endArrow=block;endFill=0;endSize=8;strokeWidth=1;shadow=0;labelBackgroundColor=none;edgeStyle=orthogonalEdgeStyle;" edge="1" parent="WIyWlLk6GJQsqaUBKTNV-1" source="Vl72aRN3SbKEqZ6TAuXg-30" target="Vl72aRN3SbKEqZ6TAuXg-31">
          <mxGeometry relative="1" as="geometry">
            <mxPoint x="214.5" y="860" as="sourcePoint" />
            <mxPoint x="214.5" y="910" as="targetPoint" />
          </mxGeometry>
        </mxCell>
        <mxCell id="Vl72aRN3SbKEqZ6TAuXg-36" value="" style="rounded=0;html=1;jettySize=auto;orthogonalLoop=1;fontSize=11;endArrow=block;endFill=0;endSize=8;strokeWidth=1;shadow=0;labelBackgroundColor=none;edgeStyle=orthogonalEdgeStyle;" edge="1" parent="WIyWlLk6GJQsqaUBKTNV-1" source="Vl72aRN3SbKEqZ6TAuXg-31" target="Vl72aRN3SbKEqZ6TAuXg-6">
          <mxGeometry relative="1" as="geometry">
            <mxPoint x="214.5" y="980" as="sourcePoint" />
            <mxPoint x="214.5" y="1030" as="targetPoint" />
          </mxGeometry>
        </mxCell>
      </root>
    </mxGraphModel>
  </diagram>
</mxfile>
